<svg width="24" height="24" viewBox="0 0 24 24" fill="none" xmlns="http://www.w3.org/2000/svg">
<g clip-path="url(#clip0_1_2192)">
<path d="M21.2653 4.0988V19.9014H2.73197V4.0988H21.2653ZM21.2653 1.43213H2.73197C2.02473 1.43213 1.34645 1.71308 0.846354 2.21318C0.346257 2.71327 0.0653076 3.39155 0.0653076 4.0988V19.9014C0.0653076 20.6087 0.346257 21.287 0.846354 21.7871C1.34645 22.2872 2.02473 22.5681 2.73197 22.5681H21.2653C21.9726 22.5681 22.6508 22.2872 23.1509 21.7871C23.651 21.287 23.932 20.6087 23.932 19.9014V4.0988C23.932 3.39155 23.651 2.71327 23.1509 2.21318C22.6508 1.71308 21.9726 1.43213 21.2653 1.43213Z" />
<path d="M7.88938 22.6189L6.02271 20.7176L14.7347 12.1576C15.1752 11.719 15.7425 11.4301 16.3563 11.3318C16.9701 11.2334 17.5992 11.3306 18.1547 11.6096L23.9174 14.4909L22.7254 16.8762L16.9614 13.9949C16.9046 13.9664 16.8404 13.9565 16.7777 13.9666C16.715 13.9766 16.6571 14.0061 16.6121 14.0509L7.88938 22.6189Z" />
<path d="M8.30263 11.6055C9.20616 11.6055 9.93863 10.873 9.93863 9.9695C9.93863 9.06596 9.20616 8.3335 8.30263 8.3335C7.39909 8.3335 6.66663 9.06596 6.66663 9.9695C6.66663 10.873 7.39909 11.6055 8.30263 11.6055Z" />
</g>
<defs>
<clipPath id="clip0_1_2192">
<rect width="24" height="24" fill="white"/>
</clipPath>
</defs>
</svg>
