<svg width="24" height="24" viewBox="0 0 24 24" fill="none" xmlns="http://www.w3.org/2000/svg">
<g clip-path="url(#clip0_1_2246)">
<path d="M21.2666 4.09855V19.9012H2.73332V4.09855H21.2666ZM21.2666 1.43188H2.73332C2.02607 1.43188 1.34779 1.71283 0.847697 2.21293C0.3476 2.71303 0.0666504 3.39131 0.0666504 4.09855V19.9012C0.0666504 20.6084 0.3476 21.2867 0.847697 21.7868C1.34779 22.2869 2.02607 22.5679 2.73332 22.5679H21.2666C21.9739 22.5679 22.6522 22.2869 23.1523 21.7868C23.6524 21.2867 23.9333 20.6084 23.9333 19.9012V4.09855C23.9333 3.39131 23.6524 2.71303 23.1523 2.21293C22.6522 1.71283 21.9739 1.43188 21.2666 1.43188Z" />
<path d="M16 6.93726H7.99996C7.26358 6.93726 6.66663 7.53421 6.66663 8.27059C6.66663 9.00697 7.26358 9.60392 7.99996 9.60392H16C16.7363 9.60392 17.3333 9.00697 17.3333 8.27059C17.3333 7.53421 16.7363 6.93726 16 6.93726Z" />
<path d="M12 17.3838C11.6463 17.3838 11.3072 17.2433 11.0571 16.9933C10.8071 16.7432 10.6666 16.4041 10.6666 16.0505V9.38379H13.3333V16.0505C13.3333 16.4041 13.1928 16.7432 12.9428 16.9933C12.6927 17.2433 12.3536 17.3838 12 17.3838Z" />
</g>
<defs>
<clipPath id="clip0_1_2246">
<rect width="24" height="24" fill="white"/>
</clipPath>
</defs>
</svg>
